<mxfile host="app.diagrams.net" agent="Mozilla/5.0 (Windows NT 10.0; Win64; x64) AppleWebKit/537.36 (KHTML, like Gecko) Chrome/133.0.0.0 Safari/537.36" version="26.0.10">
  <diagram name="Page-1" id="jvBuB1lze5xDsDnsCJKq">
    <mxGraphModel dx="880" dy="426" grid="1" gridSize="10" guides="1" tooltips="1" connect="1" arrows="1" fold="1" page="1" pageScale="1" pageWidth="827" pageHeight="1169" math="0" shadow="0">
      <root>
        <mxCell id="0" />
        <mxCell id="1" parent="0" />
        <mxCell id="WdHeQMochMUsHgBH3z90-2" value="dataset" style="shape=cylinder3;whiteSpace=wrap;html=1;boundedLbl=1;backgroundOutline=1;size=15;fillColor=#60a917;fontColor=#ffffff;strokeColor=#2D7600;" vertex="1" parent="1">
          <mxGeometry x="60" y="170" width="60" height="80" as="geometry" />
        </mxCell>
        <mxCell id="WdHeQMochMUsHgBH3z90-3" value="generator" style="rounded=0;whiteSpace=wrap;html=1;fillColor=#1ba1e2;fontColor=#ffffff;strokeColor=#006EAF;" vertex="1" parent="1">
          <mxGeometry x="280" y="260" width="120" height="60" as="geometry" />
        </mxCell>
        <mxCell id="WdHeQMochMUsHgBH3z90-4" value="discriminator" style="rounded=0;whiteSpace=wrap;html=1;fillColor=#1ba1e2;fontColor=#ffffff;strokeColor=#006EAF;" vertex="1" parent="1">
          <mxGeometry x="280" y="140" width="120" height="60" as="geometry" />
        </mxCell>
        <mxCell id="WdHeQMochMUsHgBH3z90-5" value="random vector" style="rounded=0;whiteSpace=wrap;html=1;rotation=0;fillColor=#1ba1e2;fontColor=#ffffff;strokeColor=#006EAF;" vertex="1" parent="1">
          <mxGeometry x="120" y="300" width="120" height="20" as="geometry" />
        </mxCell>
        <mxCell id="WdHeQMochMUsHgBH3z90-19" value="" style="edgeStyle=orthogonalEdgeStyle;rounded=0;orthogonalLoop=1;jettySize=auto;html=1;" edge="1" parent="1" source="WdHeQMochMUsHgBH3z90-6" target="WdHeQMochMUsHgBH3z90-14">
          <mxGeometry relative="1" as="geometry" />
        </mxCell>
        <mxCell id="WdHeQMochMUsHgBH3z90-6" value="imputed dataset" style="shape=cylinder3;whiteSpace=wrap;html=1;boundedLbl=1;backgroundOutline=1;size=15;fillColor=#60a917;fontColor=#ffffff;strokeColor=#2D7600;" vertex="1" parent="1">
          <mxGeometry x="530" y="180" width="60" height="80" as="geometry" />
        </mxCell>
        <mxCell id="WdHeQMochMUsHgBH3z90-7" value="" style="endArrow=classic;html=1;rounded=0;" edge="1" parent="1">
          <mxGeometry width="50" height="50" relative="1" as="geometry">
            <mxPoint x="160" y="200" as="sourcePoint" />
            <mxPoint x="270" y="160" as="targetPoint" />
            <Array as="points">
              <mxPoint x="160" y="160" />
            </Array>
          </mxGeometry>
        </mxCell>
        <mxCell id="WdHeQMochMUsHgBH3z90-8" value="" style="endArrow=classic;html=1;rounded=0;" edge="1" parent="1">
          <mxGeometry width="50" height="50" relative="1" as="geometry">
            <mxPoint x="160" y="200" as="sourcePoint" />
            <mxPoint x="280" y="280" as="targetPoint" />
            <Array as="points">
              <mxPoint x="160" y="280" />
              <mxPoint x="200" y="280" />
            </Array>
          </mxGeometry>
        </mxCell>
        <mxCell id="WdHeQMochMUsHgBH3z90-9" value="" style="endArrow=none;html=1;rounded=0;" edge="1" parent="1">
          <mxGeometry width="50" height="50" relative="1" as="geometry">
            <mxPoint x="120" y="230" as="sourcePoint" />
            <mxPoint x="160" y="230" as="targetPoint" />
            <Array as="points">
              <mxPoint x="140" y="230" />
            </Array>
          </mxGeometry>
        </mxCell>
        <mxCell id="WdHeQMochMUsHgBH3z90-10" value="" style="endArrow=classic;html=1;rounded=0;entryX=0.033;entryY=0.9;entryDx=0;entryDy=0;entryPerimeter=0;" edge="1" parent="1">
          <mxGeometry width="50" height="50" relative="1" as="geometry">
            <mxPoint x="240" y="310.5" as="sourcePoint" />
            <mxPoint x="283.96000000000004" y="309.5" as="targetPoint" />
          </mxGeometry>
        </mxCell>
        <mxCell id="WdHeQMochMUsHgBH3z90-11" value="" style="endArrow=classic;html=1;rounded=0;entryX=0.592;entryY=-0.033;entryDx=0;entryDy=0;entryPerimeter=0;exitX=0.592;exitY=0.95;exitDx=0;exitDy=0;exitPerimeter=0;" edge="1" parent="1" source="WdHeQMochMUsHgBH3z90-4" target="WdHeQMochMUsHgBH3z90-3">
          <mxGeometry width="50" height="50" relative="1" as="geometry">
            <mxPoint x="350" y="210" as="sourcePoint" />
            <mxPoint x="400" y="160" as="targetPoint" />
          </mxGeometry>
        </mxCell>
        <mxCell id="WdHeQMochMUsHgBH3z90-12" value="feedback" style="edgeLabel;html=1;align=center;verticalAlign=middle;resizable=0;points=[];" vertex="1" connectable="0" parent="WdHeQMochMUsHgBH3z90-11">
          <mxGeometry x="-0.0495" y="-3" relative="1" as="geometry">
            <mxPoint as="offset" />
          </mxGeometry>
        </mxCell>
        <mxCell id="WdHeQMochMUsHgBH3z90-13" value="" style="endArrow=classic;html=1;rounded=0;entryX=-0.033;entryY=0.588;entryDx=0;entryDy=0;entryPerimeter=0;" edge="1" parent="1" target="WdHeQMochMUsHgBH3z90-6">
          <mxGeometry width="50" height="50" relative="1" as="geometry">
            <mxPoint x="400" y="300" as="sourcePoint" />
            <mxPoint x="480" y="240" as="targetPoint" />
            <Array as="points">
              <mxPoint x="480" y="300" />
              <mxPoint x="480" y="227" />
            </Array>
          </mxGeometry>
        </mxCell>
        <mxCell id="WdHeQMochMUsHgBH3z90-14" value="EDA and statistical-based feature selection&amp;nbsp;" style="rounded=0;whiteSpace=wrap;html=1;fillColor=#6a00ff;fontColor=#ffffff;strokeColor=#3700CC;" vertex="1" parent="1">
          <mxGeometry x="670" y="200" width="120" height="60" as="geometry" />
        </mxCell>
        <mxCell id="WdHeQMochMUsHgBH3z90-23" value="" style="edgeStyle=orthogonalEdgeStyle;rounded=0;orthogonalLoop=1;jettySize=auto;html=1;" edge="1" parent="1" source="WdHeQMochMUsHgBH3z90-15" target="WdHeQMochMUsHgBH3z90-17">
          <mxGeometry relative="1" as="geometry" />
        </mxCell>
        <mxCell id="WdHeQMochMUsHgBH3z90-15" value="train set" style="rounded=0;whiteSpace=wrap;html=1;fillColor=#f0a30a;fontColor=#000000;strokeColor=#BD7000;" vertex="1" parent="1">
          <mxGeometry x="294" y="390" width="120" height="60" as="geometry" />
        </mxCell>
        <mxCell id="WdHeQMochMUsHgBH3z90-24" value="" style="edgeStyle=orthogonalEdgeStyle;rounded=0;orthogonalLoop=1;jettySize=auto;html=1;" edge="1" parent="1" source="WdHeQMochMUsHgBH3z90-16" target="WdHeQMochMUsHgBH3z90-18">
          <mxGeometry relative="1" as="geometry" />
        </mxCell>
        <mxCell id="WdHeQMochMUsHgBH3z90-16" value="test set" style="rounded=0;whiteSpace=wrap;html=1;fillColor=#f0a30a;fontColor=#000000;strokeColor=#BD7000;" vertex="1" parent="1">
          <mxGeometry x="470" y="390" width="120" height="60" as="geometry" />
        </mxCell>
        <mxCell id="WdHeQMochMUsHgBH3z90-25" value="" style="edgeStyle=orthogonalEdgeStyle;rounded=0;orthogonalLoop=1;jettySize=auto;html=1;" edge="1" parent="1" source="WdHeQMochMUsHgBH3z90-17" target="WdHeQMochMUsHgBH3z90-18">
          <mxGeometry relative="1" as="geometry" />
        </mxCell>
        <mxCell id="WdHeQMochMUsHgBH3z90-26" value="trained model&lt;div&gt;&lt;br&gt;&lt;/div&gt;" style="edgeLabel;html=1;align=center;verticalAlign=middle;resizable=0;points=[];" vertex="1" connectable="0" parent="WdHeQMochMUsHgBH3z90-25">
          <mxGeometry x="-0.08" y="-1" relative="1" as="geometry">
            <mxPoint as="offset" />
          </mxGeometry>
        </mxCell>
        <mxCell id="WdHeQMochMUsHgBH3z90-17" value="model train" style="rounded=0;whiteSpace=wrap;html=1;fillColor=#647687;fontColor=#ffffff;strokeColor=#314354;" vertex="1" parent="1">
          <mxGeometry x="280" y="490" width="120" height="60" as="geometry" />
        </mxCell>
        <mxCell id="WdHeQMochMUsHgBH3z90-18" value="model evaluation" style="rounded=0;whiteSpace=wrap;html=1;fillColor=#647687;fontColor=#ffffff;strokeColor=#314354;" vertex="1" parent="1">
          <mxGeometry x="500" y="490" width="120" height="60" as="geometry" />
        </mxCell>
        <mxCell id="WdHeQMochMUsHgBH3z90-20" value="" style="endArrow=classic;html=1;rounded=0;entryX=0.425;entryY=0;entryDx=0;entryDy=0;entryPerimeter=0;" edge="1" parent="1" target="WdHeQMochMUsHgBH3z90-16">
          <mxGeometry width="50" height="50" relative="1" as="geometry">
            <mxPoint x="720" y="260" as="sourcePoint" />
            <mxPoint x="770" y="210" as="targetPoint" />
            <Array as="points">
              <mxPoint x="720" y="320" />
              <mxPoint x="521" y="320" />
            </Array>
          </mxGeometry>
        </mxCell>
        <mxCell id="WdHeQMochMUsHgBH3z90-22" value="dataset spliting" style="edgeLabel;html=1;align=center;verticalAlign=middle;resizable=0;points=[];" vertex="1" connectable="0" parent="WdHeQMochMUsHgBH3z90-20">
          <mxGeometry x="-0.2948" y="3" relative="1" as="geometry">
            <mxPoint as="offset" />
          </mxGeometry>
        </mxCell>
        <mxCell id="WdHeQMochMUsHgBH3z90-21" value="" style="endArrow=classic;html=1;rounded=0;entryX=0.692;entryY=-0.033;entryDx=0;entryDy=0;entryPerimeter=0;" edge="1" parent="1" target="WdHeQMochMUsHgBH3z90-15">
          <mxGeometry width="50" height="50" relative="1" as="geometry">
            <mxPoint x="520" y="320" as="sourcePoint" />
            <mxPoint x="520" y="300" as="targetPoint" />
            <Array as="points">
              <mxPoint x="377" y="320" />
            </Array>
          </mxGeometry>
        </mxCell>
      </root>
    </mxGraphModel>
  </diagram>
</mxfile>
